<?xml version="1.0" encoding="UTF-8"?>
<svg id="Layer_2" xmlns="http://www.w3.org/2000/svg" viewBox="0 0 136.11 96.74">
  <defs>
    <style>
      .cls-1, .cls-2 {
        fill: #ffdbdb;
      }

      .cls-3 {
        fill: #e85521;
      }

      .cls-4 {
        fill: none;
      }

      .cls-5 {
        fill: #231f20;
      }

      .cls-2 {
        font-family: OldLondon, 'Old London';
        font-size: 15.43px;
      }
    </style>
  </defs>
  <g id="Layer_1-2" data-name="Layer_1">
    <g>
      <g>
        <path class="cls-1" d="M89.23,6.99l-2.39,16.84-14.73,6.23.53,5.9-.08-.45c-2.37.4-4,2.47-4.06,2.56l.72.56s1.47-1.86,3.46-2.21l.23,2.56c-2.74-.35-4.38,2.5-4.45,2.62l.79.45s1.44-2.5,3.62-2.16l.07-.45.27,3c-3.84,1.87-5.11,4.72-5.17,4.84l.84.36s1.27-2.83,5.04-4.54l-.02-.03.3-.14c2.17,4.95.89,11.24.87,11.31l.89.19c.06-.28,1.37-6.67-.94-11.89l2.32-1.1,1.96-.93c.07.74.63,1.32,1.31,1.32.73,0,1.33-.66,1.33-1.48,0-.36-.12-.69-.31-.95l4.03-1.92,8.87-4.22,1.59-18.53L107.02.59l-17.79,6.4Z"/>
        <path class="cls-1" d="M72.16,32.56l-.1-.91c-2.07.22-3.49,1.9-3.55,1.97l.7.58s1.25-1.47,2.95-1.65Z"/>
        <path class="cls-1" d="M62.25,42.43l.27-3,.07.45c2.18-.34,3.61,2.13,3.62,2.15l.79-.45c-.07-.12-1.7-2.97-4.45-2.62l.23-2.56c1.99.35,3.44,2.19,3.46,2.21l.72-.56c-.07-.09-1.7-2.16-4.06-2.56l-.08.45.53-5.9-14.73-6.23-2.39-16.84L28.45.57l10.88,14.15,1.59,18.53,8.87,4.22,4.03,1.92c-.19.26-.31.58-.31.95,0,.82.59,1.48,1.33,1.48.68,0,1.24-.58,1.31-1.32l1.96.93,2.32,1.1c-2.31,5.22-1,11.6-.94,11.89l.89-.19c-.01-.07-1.3-6.35.87-11.31l.3.14-.02.03c3.77,1.71,5.03,4.51,5.04,4.54l.84-.36c-.05-.12-1.32-2.97-5.17-4.84Z"/>
        <path class="cls-1" d="M66.26,34.19l.7-.58c-.06-.07-1.48-1.75-3.55-1.97l-.1.91c1.7.18,2.94,1.63,2.95,1.65Z"/>
      </g>
      <path class="cls-4" d="M57.36,61.97c.05.17.11.33.17.5l.57-.5h-.74Z"/>
      <path class="cls-4" d="M58.68,65.42c.1.23.21.44.31.66l.43-.66h-.73Z"/>
      <path class="cls-4" d="M56.05,58.61l.37-.65v-.03h-.72c.12.22.23.44.34.68Z"/>
      <polygon class="cls-3" points="56.44 57.93 56.41 57.93 56.43 57.96 56.44 57.93"/>
      <path class="cls-1" d="M77.37,41.27l8.32-3.96c1.87,7.57-6.1,6.59-8.32,3.96Z"/>
      <g>
        <path class="cls-5" d="M72.16,47.97c2.6-.81,2.8,6.75,0,6.75s-2.8,4.94-2.8,6.25-.98-11.83,2.8-13Z"/>
        <path class="cls-5" d="M68.81,61.8l-.13-.62c-.02-.12-1.03-12.53,3.28-13.86l.2.65-.2-.65c.74-.23,1.44-.03,1.96.57,1.15,1.3,1.19,4.22.45,5.86-.48,1.07-1.26,1.65-2.21,1.65-1.39,0-2.12,1.93-2.12,5.57,0,.68-.52.76-.62.77l-.62.06ZM72.54,48.59c-.06,0-.11.01-.17.03-1.43.44-2.06,3.43-2.31,6.37.54-.64,1.24-.96,2.1-.96.39,0,.71-.28.96-.85.64-1.41.41-3.67-.23-4.4-.13-.15-.24-.2-.36-.2Z"/>
      </g>
      <path class="cls-1" d="M58.11,41.25l-8.32-3.96c-1.87,7.57,6.1,6.59,8.32,3.96Z"/>
      <g>
        <path class="cls-5" d="M63.32,47.95c-2.6-.81-2.8,6.75,0,6.75s2.8,4.94,2.8,6.25c0,1.32.98-11.83-2.8-13Z"/>
        <path class="cls-5" d="M66.68,61.77l-.62-.05c-.1-.01-.62-.1-.62-.77,0-3.64-.73-5.57-2.12-5.57-.94,0-1.73-.59-2.21-1.65-.74-1.64-.7-4.56.45-5.86.53-.6,1.22-.8,1.96-.57h0c4.31,1.33,3.31,13.74,3.28,13.86l-.12.61ZM62.94,48.58c-.12,0-.23.05-.36.2-.64.72-.86,2.99-.23,4.4.25.56.58.85.96.85.86,0,1.56.32,2.1.96-.25-2.94-.88-5.93-2.3-6.37h0c-.06-.02-.12-.03-.17-.03Z"/>
      </g>
      <g>
        <path class="cls-5" d="M72.17,32.38l-.1-.91c-2.07.22-3.49,1.9-3.55,1.97l.7.58s1.25-1.47,2.95-1.65Z"/>
        <path class="cls-5" d="M69.24,34.35l-1.05-.87.15-.17c.06-.07,1.53-1.82,3.7-2.05l.23-.02.15,1.36-.23.02c-1.57.17-2.75,1.51-2.8,1.57l-.15.17ZM68.85,33.42l.35.29c.38-.39,1.39-1.3,2.72-1.53l-.05-.45c-1.51.25-2.63,1.28-3.02,1.69Z"/>
      </g>
      <g>
        <path class="cls-5" d="M66.26,34.01l.7-.58c-.06-.07-1.48-1.75-3.55-1.97l-.1.91c1.7.18,2.94,1.63,2.95,1.65Z"/>
        <path class="cls-5" d="M66.24,34.33l-.15-.17s-1.2-1.4-2.8-1.57l-.23-.02.15-1.36.23.02c2.18.23,3.64,1.98,3.7,2.05l.14.17-1.05.87ZM63.57,32.17c1.33.23,2.35,1.15,2.72,1.53l.35-.29c-.39-.41-1.52-1.44-3.02-1.69l-.05.45Z"/>
      </g>
      <path class="cls-5" d="M62.46,71.38l-1-8.03s-.09-.05-.13-.08c-.76-.46-1.55-1.06-2.33-1.85l-5.41,2.08,3.75-4.1c-.12-.17-.23-.34-.35-.52h-5.1s3.81-2.34,3.81-2.34c-.06-.13-.12-.26-.19-.39h-3.62s2.16-2.67,2.16-2.67c-.13-.19-.26-.37-.39-.54h-3.75s1.13-2.35,1.13-2.35c-3.73-1.96-7.7,1.08-10.36,3.47l-2.64,4.18,8.4-3.4s2.66,6.96,7.31,13.1l4.6-1.85-.95,6c2.89,2.76,6.28,4.79,10.07,4.98v-12.55s-.25.06-.69.1l-4.33,6.76Z"/>
      <path class="cls-1" d="M66.78,64.61c-1.02.09-3.07.04-5.33-1.26l1,8.03,4.33-6.76Z"/>
      <path class="cls-1" d="M53.75,67.94c1.11,1.46,2.33,2.88,3.65,4.14l.95-6-4.6,1.85Z"/>
      <path class="cls-1" d="M53.59,63.51l5.41-2.08c-.56-.57-1.12-1.24-1.66-2.02l-3.75,4.1Z"/>
      <path class="cls-1" d="M53.66,52.94c-.84-1.12-1.72-1.88-2.62-2.35l-1.13,2.35h3.75Z"/>
      <path class="cls-1" d="M51.89,58.89h5.1c-.45-.7-.88-1.47-1.29-2.34l-3.81,2.34Z"/>
      <path class="cls-1" d="M51.89,56.15h3.62c-.47-1.04-.96-1.92-1.46-2.67l-2.16,2.67Z"/>
      <path class="cls-5" d="M72.75,71.38l1-8.03s.09-.05.13-.08c.76-.46,1.55-1.06,2.33-1.85l5.41,2.08-3.75-4.1c.12-.17.23-.34.35-.52h5.1s-3.81-2.34-3.81-2.34c.06-.13.12-.26.19-.39h3.62s-2.16-2.67-2.16-2.67c.13-.19.26-.37.39-.54h3.75s-1.13-2.35-1.13-2.35c3.73-1.96,7.7,1.08,10.36,3.47l2.64,4.18-8.4-3.4s-2.66,6.96-7.31,13.1l-4.6-1.85.95,6c-2.89,2.76-6.28,4.79-10.07,4.98v-12.55s.25.06.69.1l4.33,6.76Z"/>
      <path class="cls-1" d="M68.43,64.61c1.02.09,3.07.04,5.33-1.26l-1,8.03-4.33-6.76Z"/>
      <path class="cls-1" d="M81.45,67.94c-1.11,1.46-2.33,2.88-3.65,4.14l-.95-6,4.6,1.85Z"/>
      <path class="cls-1" d="M81.62,63.51l-5.41-2.08c.56-.57,1.12-1.24,1.66-2.02l3.75,4.1Z"/>
      <path class="cls-1" d="M81.55,52.94c.84-1.12,1.72-1.88,2.62-2.35l1.13,2.35h-3.75Z"/>
      <path class="cls-1" d="M83.32,58.89h-5.1c.45-.7.88-1.47,1.29-2.34l3.81,2.34Z"/>
      <path class="cls-1" d="M83.32,56.15h-3.62c.47-1.04.96-1.92,1.46-2.67l2.16,2.67Z"/>
      <rect class="cls-5" x="66.92" y="64.51" width="1.37" height="12.55" transform="translate(-1.44 1.41) rotate(-1.18)"/>
      <g>
        <path class="cls-5" d="M91.48,9.55l-1.34,17.39-16.07,6.94-.36-.84,15.57-6.72,1.34-17.33,12.57-7.17-13.8,4.97-2.39,16.84-14.73,6.23.53,5.9-.08-.45c-2.37.4-4,2.47-4.06,2.56l.72.56s1.47-1.86,3.46-2.21l.23,2.56c-2.74-.35-4.38,2.5-4.45,2.62l.79.45s1.44-2.5,3.62-2.16l.07-.45.27,3c-3.84,1.87-5.11,4.72-5.17,4.84l.84.36s1.27-2.83,5.04-4.54l-.02-.03.3-.14c2.17,4.95.89,11.24.87,11.31l.89.19c.06-.28,1.37-6.67-.94-11.89l2.32-1.1,1.96-.93c.07.74.63,1.32,1.31,1.32.73,0,1.33-.66,1.33-1.48,0-.36-.12-.69-.31-.95l4.03-1.92,8.87-4.22,1.59-18.53L106.88.76l-15.4,8.79Z"/>
        <path class="cls-5" d="M76.3,54.5l-1.34-.28.05-.22c.01-.06,1.24-6.08-.76-10.93l-.08.06c-3.66,1.66-4.91,4.4-4.93,4.42l-.09.21-1.25-.54.09-.21c.05-.12,1.32-2.98,5.14-4.89l-.2-2.2c-1.99-.26-3.31,2.03-3.33,2.05l-.11.2-1.19-.67.11-.2c.07-.12,1.66-2.93,4.39-2.76l-.18-2.04c-1.76.43-3.02,2.01-3.08,2.08l-.14.18-1.08-.84.14-.18c.07-.09,1.68-2.13,4.03-2.61l-.49-5.4,14.77-6.25,2.39-16.85.13-.05,13.8-4.97.19.41-12.46,7.11-1.34,17.34-15.48,6.68.18.42,15.74-6.79,1.34-17.38.1-.06L107.75,0l-11.25,14.62-1.6,18.59-12.78,6.08c.14.26.21.55.21.85,0,.94-.7,1.71-1.55,1.71-.69,0-1.29-.5-1.48-1.21l-3.81,1.81c2.22,5.25.92,11.55.87,11.82l-.05.22ZM75.5,53.87l.45.09c.22-1.2,1.1-6.84-.97-11.52l-.09-.2,4.77-2.27.03.32c.06.64.53,1.11,1.09,1.11.61,0,1.1-.56,1.1-1.25,0-.29-.09-.57-.27-.81l-.17-.22,13.03-6.2,1.59-18.46.04-.05,9.91-12.88-14.3,8.17-1.34,17.41-16.41,7.08-.54-1.26,15.65-6.76,1.33-17.31,10.39-5.93-11.2,4.03-2.39,16.84-14.7,6.22.51,5.73-.45.06-.04-.22c-1.8.39-3.12,1.76-3.55,2.26l.36.28c.43-.48,1.74-1.82,3.45-2.12l.24-.04.13,1.44h0s.45,4.99.45,4.99l-.14.07c-3.24,1.57-4.6,3.83-4.96,4.52l.42.18c.36-.68,1.72-2.88,4.86-4.36l.18-.12.51-.24.09.22c1.97,4.49,1.14,10.05.93,11.22ZM68.92,41.33l.4.23c.39-.58,1.67-2.24,3.51-2.1l.07-.45c-2.15-.19-3.57,1.7-3.98,2.33Z"/>
      </g>
      <g>
        <path class="cls-5" d="M62.1,42.25l.27-3,.07.45c2.18-.34,3.61,2.13,3.62,2.15l.79-.45c-.07-.12-1.7-2.97-4.45-2.62l.23-2.56c1.99.35,3.44,2.19,3.46,2.21l.72-.56c-.07-.09-1.7-2.16-4.06-2.56l-.08.45.53-5.9-14.73-6.23-2.39-16.84-13.8-4.97,12.56,7.17,1.34,17.33,15.57,6.72-.36.84-16.07-6.94-1.34-17.39L28.59.76l10.6,13.78,1.59,18.53,8.87,4.22,4.03,1.92c-.19.26-.31.58-.31.95,0,.82.59,1.48,1.33,1.48.68,0,1.24-.58,1.31-1.32l1.96.93,2.32,1.1c-2.31,5.22-1,11.6-.94,11.89l.89-.19c-.01-.07-1.3-6.35.87-11.31l.3.14-.02.03c3.77,1.71,5.03,4.51,5.04,4.54l.84-.36c-.05-.12-1.32-2.97-5.17-4.84Z"/>
        <path class="cls-5" d="M59.17,54.5l-.05-.22c-.06-.27-1.35-6.57.87-11.82l-3.81-1.81c-.19.71-.79,1.21-1.48,1.21-.86,0-1.55-.77-1.55-1.71,0-.3.07-.59.21-.85l-12.78-6.08-1.6-18.59L27.72,0l16.49,9.41,1.34,17.38,15.74,6.79.18-.42-15.49-6.68-1.34-17.34-12.46-7.11.19-.41,13.93,5.01,2.39,16.85,14.77,6.25-.48,5.4c2.37.48,3.96,2.52,4.03,2.61l.14.18-1.08.83-.14-.18c-.06-.07-1.33-1.65-3.08-2.08l-.18,2.04c2.72-.16,4.33,2.64,4.39,2.76l.11.2-1.19.67-.11-.2s-1.35-2.32-3.33-2.05l-.2,2.2c3.82,1.91,5.08,4.77,5.14,4.89l.09.21-1.25.54-.09-.21s-1.27-2.76-4.93-4.42l-.09-.04c-1.99,4.85-.77,10.85-.75,10.91l.05.22-1.34.28ZM55.81,39.97l4.77,2.27-.09.2c-2.07,4.68-1.19,10.32-.97,11.52l.45-.09c-.21-1.17-1.04-6.72.93-11.22l.09-.22.71.34v.03c3.12,1.49,4.48,3.68,4.84,4.35l.42-.18c-.36-.69-1.72-2.95-4.96-4.52l-.14-.07.3-3.34h0l.28-3.09.24.04c1.7.3,3.02,1.64,3.45,2.12l.36-.28c-.43-.49-1.77-1.87-3.55-2.26l-.04.22-.45-.06.51-5.73-14.7-6.22-2.39-16.84-11.2-4.03,10.39,5.94,1.33,17.31,15.65,6.76-.54,1.26-16.41-7.08-1.34-17.41L29.46,1.52l9.95,12.93v.07s1.59,18.4,1.59,18.4l13.03,6.2-.17.22c-.17.23-.27.51-.27.81,0,.69.49,1.25,1.1,1.25.56,0,1.02-.48,1.09-1.11l.03-.32ZM62.86,39.44c1.73,0,2.91,1.55,3.28,2.11l.4-.22c-.41-.63-1.82-2.53-3.98-2.33l.07.45c.08,0,.15,0,.23,0Z"/>
      </g>
      <text class="cls-2" transform="translate(7.31 93.14)"><tspan x="0" y="0">Dragon Julio Tequila</tspan></text>
    </g>
  </g>
</svg>