<?xml version="1.0" encoding="UTF-8"?>
<svg id="Layer_2" xmlns="http://www.w3.org/2000/svg" xmlns:xlink="http://www.w3.org/1999/xlink" viewBox="0 0 374.57 357.7">
  <defs>
    <style>
      .cls-1 {
        fill: url(#radial-gradient);
        stroke: #d0d2d3;
        stroke-miterlimit: 10;
        stroke-width: 6px;
      }
    </style>
    <radialGradient id="radial-gradient" cx="187.28" cy="178.85" fx="187.28" fy="178.85" r="180.12" gradientUnits="userSpaceOnUse">
      <stop offset="0" stop-color="#ffd093"/>
      <stop offset=".21" stop-color="#ffce8f"/>
      <stop offset=".38" stop-color="#ffcb86"/>
      <stop offset=".52" stop-color="#ffc575"/>
      <stop offset=".66" stop-color="#ffbd5e"/>
      <stop offset=".79" stop-color="#ffb240"/>
      <stop offset=".92" stop-color="#ffa51c"/>
      <stop offset="1" stop-color="#ff9c00"/>
    </radialGradient>
  </defs>
  <g id="Layer_1-2" data-name="Layer_1">
    <path class="cls-1" d="M198.58,11.26l34.84,109.42c1.57,4.94,6.18,8.29,11.36,8.26l114.83-.67c11.55-.07,16.37,14.75,6.98,21.48l-93.3,66.95c-4.21,3.02-5.97,8.44-4.34,13.36l36.13,109c3.63,10.97-8.97,20.12-18.28,13.28l-92.51-68.04c-4.18-3.07-9.87-3.07-14.05,0l-92.51,68.04c-9.31,6.85-21.91-2.31-18.28-13.28l36.13-109c1.63-4.92-.13-10.34-4.34-13.36L7.97,149.75c-9.39-6.74-4.57-21.55,6.98-21.48l114.83.67c5.19.03,9.79-3.31,11.36-8.26L175.99,11.26c3.51-11.01,19.08-11.01,22.59,0Z"/>
  </g>
</svg>